<svg width="100" height="68" viewBox="0 0 100 68" fill="none" xmlns="http://www.w3.org/2000/svg">
<g clip-path="url(#clip0_2092_321)">
<mask id="mask0_2092_321" style="mask-type:alpha" maskUnits="userSpaceOnUse" x="0" y="0" width="100" height="68">
<path d="M100 0H0V68H100V0Z" fill="white"/>
</mask>
<g mask="url(#mask0_2092_321)">
<path d="M100 0H0V68H100V0Z" fill="white"/>
<path d="M29.6437 43.68C29.6437 44.86 28.4937 45.45 26.1937 45.45C25.6937 45.45 25.3937 45.2 25.2937 44.7C25.2137 44.18 25.1737 43.54 25.1737 42.78C25.1737 42.02 25.2237 41.21 25.3237 40.35C25.4437 39.47 25.5937 38.52 25.7737 37.5C26.1137 35.54 26.5937 33.43 27.2137 31.17C27.8537 28.89 28.4837 27.13 29.1037 25.89C27.8437 25.97 26.5937 26.2 25.3537 26.58C24.1137 26.94 23.2337 27.2 22.7137 27.36C22.1937 27.5 21.7637 27.57 21.4237 27.57C21.0837 27.57 20.9137 27.46 20.9137 27.24C20.9137 26.98 21.1137 26.6 21.5137 26.1C21.9137 25.58 22.4837 25.06 23.2237 24.54C25.1037 23.26 27.1937 22.61 29.4937 22.59L39.3637 22.68C39.9037 22.68 40.1737 22.89 40.1737 23.31C40.1737 23.43 40.0937 23.65 39.9337 23.97C39.7737 24.27 39.6337 24.6 39.5137 24.96C39.2537 25.68 38.7037 26.04 37.8637 26.04C37.0437 26.04 35.0737 25.98 31.9537 25.86C31.8737 26.74 31.7137 27.87 31.4737 29.25C31.2337 30.61 30.9737 32.1 30.6937 33.72C30.0137 37.86 29.6637 41.18 29.6437 43.68ZM42.9623 41.73C44.5223 41.73 46.0323 41.11 47.4923 39.87C48.0323 39.41 48.4723 38.99 48.8123 38.61C49.1523 38.21 49.4123 38.01 49.5923 38.01C49.8723 38.01 50.0123 38.29 50.0123 38.85C50.0123 39.41 49.8623 40.04 49.5623 40.74C49.2623 41.42 48.7623 42.09 48.0623 42.75C46.3423 44.37 43.9823 45.18 40.9823 45.18C38.6023 45.18 36.9823 44.32 36.1223 42.6C35.8223 42 35.6723 41.14 35.6723 40.02C35.6723 38.9 35.8923 37.74 36.3323 36.54C36.7723 35.32 37.3523 34.27 38.0723 33.39C38.8123 32.51 39.6623 31.83 40.6223 31.35C41.5823 30.85 42.6023 30.6 43.6823 30.6C44.7823 30.6 45.6223 30.87 46.2023 31.41C46.8023 31.95 47.1023 32.65 47.1023 33.51C47.1023 34.37 46.8823 35.08 46.4423 35.64C46.0223 36.18 45.4723 36.64 44.7923 37.02C44.1123 37.38 43.3523 37.71 42.5123 38.01C41.6923 38.29 40.8823 38.61 40.0823 38.97V39.72C40.1023 40.44 40.4023 40.95 40.9823 41.25C41.5623 41.55 42.2223 41.71 42.9623 41.73ZM42.4523 33.27C41.4123 33.27 40.6923 34.48 40.2923 36.9C40.7123 36.62 41.1023 36.37 41.4623 36.15C41.8423 35.93 42.1723 35.72 42.4523 35.52C43.0523 35.08 43.3623 34.58 43.3823 34.02C43.3823 33.52 43.0723 33.27 42.4523 33.27ZM54.5713 41.85C53.9913 42.77 53.4513 43.55 52.9513 44.19C52.4713 44.81 52.0813 45.12 51.7813 45.12C51.2013 45.12 50.6813 44.99 50.2213 44.73C49.7613 44.47 49.5413 44.2 49.5613 43.92C49.5613 43.9 49.6713 43.76 49.8913 43.5C51.1713 41.96 52.4213 40.4 53.6413 38.82C53.2213 37.26 52.8313 36.26 52.4713 35.82C52.3113 35.62 52.1313 35.53 51.9313 35.55C51.1713 35.55 50.6213 35.34 50.2813 34.92C49.9413 34.5 49.7713 34.08 49.7713 33.66C49.7713 32.96 50.0513 32.21 50.6113 31.41C51.1913 30.61 51.8313 30.21 52.5313 30.21C53.2513 30.21 53.9813 30.6 54.7213 31.38C55.4613 32.14 56.1213 33.15 56.7013 34.41L56.7913 34.71C57.0513 34.39 57.3313 34.06 57.6313 33.72C58.7113 32.38 59.3513 31.52 59.5513 31.14C59.7513 30.76 59.9713 30.57 60.2113 30.57C60.7313 30.57 61.2513 30.68 61.7713 30.9C62.2913 31.12 62.5413 31.42 62.5213 31.8C62.5213 32.18 62.4013 32.51 62.1613 32.79C61.9413 33.05 61.6213 33.37 61.2013 33.75C60.7813 34.11 60.2713 34.57 59.6713 35.13C59.0713 35.69 58.4013 36.44 57.6613 37.38C58.1813 38.88 58.5413 39.84 58.7413 40.26C59.2013 41.18 59.6313 41.64 60.0313 41.64C60.3313 41.64 60.7013 41.45 61.1413 41.07C61.5813 40.69 62.0213 40.28 62.4613 39.84C62.9013 39.38 63.3013 38.96 63.6613 38.58C64.0413 38.2 64.3013 38.01 64.4413 38.01C64.7213 38.01 64.8613 38.35 64.8613 39.03C64.8613 40.43 64.1513 41.79 62.7313 43.11C61.3313 44.43 59.8313 45.09 58.2313 45.09C57.4713 45.09 56.7913 44.79 56.1913 44.19C55.6113 43.57 55.0713 42.79 54.5713 41.85ZM64.6848 43.38C64.4648 42.84 64.3048 42.22 64.2048 41.52C64.1048 40.8 64.0548 39.8 64.0548 38.52C64.0548 37.24 64.2948 35.51 64.7748 33.33H63.4248C63.1848 33.33 63.0648 33.23 63.0648 33.03C63.0648 32.55 63.1048 32.16 63.1848 31.86C63.2848 31.54 63.5048 31.18 63.8448 30.78H64.5648C64.8448 30.78 65.1448 30.77 65.4648 30.75C66.4248 27.67 67.4048 26.13 68.4048 26.13C69.2048 26.15 69.7648 26.66 70.0848 27.66C70.1648 27.94 70.2548 28.24 70.3548 28.56L69.1248 30.72C70.5248 30.76 71.4048 30.78 71.7648 30.78C72.1448 30.78 72.3448 30.82 72.3648 30.9C72.4048 30.96 72.4248 31.06 72.4248 31.2C72.4248 31.56 72.3348 32.01 72.1548 32.55C71.9948 33.09 71.8048 33.35 71.5848 33.33L68.5848 33.18C68.1648 35.62 67.9548 37.64 67.9548 39.24C67.9548 40.84 68.1848 41.64 68.6448 41.64C69.0248 41.64 69.7148 41.33 70.7148 40.71C71.7148 40.07 72.4348 39.46 72.8748 38.88C73.3148 38.3 73.6748 38.01 73.9548 38.01C74.2348 38.01 74.3748 38.35 74.3748 39.03C74.3748 39.71 74.1348 40.41 73.6548 41.13C73.1748 41.83 72.5648 42.48 71.8248 43.08C71.1048 43.66 70.2948 44.14 69.3948 44.52C68.5148 44.9 67.7448 45.09 67.0848 45.09C66.4248 45.09 65.9148 44.94 65.5548 44.64C65.2148 44.32 64.9248 43.9 64.6848 43.38Z" fill="#00A0D2"/>
</g>
<path opacity="0.5" d="M7.00001 18H95M7 49H95" stroke="#00A0D2" stroke-width="1.5"/>
</g>
<defs>
<clipPath id="clip0_2092_321">
<rect width="100" height="68" fill="white"/>
</clipPath>
</defs>
</svg>
